<?xml version="1.0" standalone="no"?>
<!DOCTYPE svg PUBLIC "-//W3C//DTD SVG 20010904//EN"
 "http://www.w3.org/TR/2001/REC-SVG-20010904/DTD/svg10.dtd">
<svg version="1.0" xmlns="http://www.w3.org/2000/svg"
 width="111.000000pt" height="50.000000pt" viewBox="0 0 111.000000 50.000000"
 preserveAspectRatio="xMidYMid meet">

<g transform="translate(0.000000,50.000000) scale(0.100000,-0.100000)"
fill="#000000" stroke="none">
<path d="M240 420 c0 -11 5 -20 10 -20 6 0 10 9 10 20 0 11 -4 20 -10 20 -5 0
-10 -9 -10 -20z"/>
<path d="M850 420 c0 -11 5 -20 10 -20 6 0 10 9 10 20 0 11 -4 20 -10 20 -5 0
-10 -9 -10 -20z"/>
<path d="M180 423 c0 -4 5 -15 10 -23 8 -13 10 -13 10 2 0 9 -4 20 -10 23 -5
3 -10 3 -10 -2z"/>
<path d="M307 423 c-4 -3 -7 -13 -7 -22 1 -13 3 -13 11 2 11 19 8 33 -4 20z"/>
<path d="M790 423 c0 -4 5 -15 10 -23 8 -13 10 -13 10 2 0 9 -4 20 -10 23 -5
3 -10 3 -10 -2z"/>
<path d="M917 423 c-4 -3 -7 -13 -7 -22 1 -13 3 -13 11 2 11 19 8 33 -4 20z"/>
<path d="M130 390 c0 -5 5 -10 11 -10 5 0 7 5 4 10 -3 6 -8 10 -11 10 -2 0 -4
-4 -4 -10z"/>
<path d="M355 390 c-3 -5 -1 -10 4 -10 6 0 11 5 11 10 0 6 -2 10 -4 10 -3 0
-8 -4 -11 -10z"/>
<path d="M740 390 c0 -5 5 -10 11 -10 5 0 7 5 4 10 -3 6 -8 10 -11 10 -2 0 -4
-4 -4 -10z"/>
<path d="M965 390 c-3 -5 -1 -10 4 -10 6 0 11 5 11 10 0 6 -2 10 -4 10 -3 0
-8 -4 -11 -10z"/>
<path d="M133 352 c-64 -26 -133 -78 -133 -102 0 -25 78 -83 139 -105 57 -19
165 -19 222 0 59 21 139 80 139 104 0 24 -82 85 -140 106 -57 20 -174 18 -227
-3z m196 -26 c21 -21 26 -36 26 -76 0 -70 -35 -105 -105 -105 -41 0 -54 5 -77
28 -23 22 -28 36 -28 76 0 51 20 84 60 102 35 15 96 3 124 -25z m-178 -2 c-29
-36 -29 -112 0 -148 25 -32 20 -32 -34 -5 -62 32 -97 61 -97 80 0 16 44 51
105 83 43 22 49 20 26 -10z m232 5 c61 -32 97 -61 97 -79 0 -18 -36 -47 -97
-79 -54 -27 -59 -27 -34 5 15 19 21 41 21 74 0 33 -6 55 -21 74 -25 32 -20 32
34 5z"/>
<path d="M202 297 c-24 -25 -29 -71 -11 -83 9 -5 10 1 5 20 -9 38 32 79 70 70
19 -5 25 -4 20 5 -12 19 -61 12 -84 -12z"/>
<path d="M304 266 c9 -38 -32 -79 -70 -70 -19 5 -25 4 -20 -5 12 -19 61 -12
84 12 24 25 29 71 11 83 -9 5 -10 -1 -5 -20z"/>
<path d="M743 352 c-64 -26 -133 -78 -133 -102 0 -25 78 -83 139 -105 57 -19
165 -19 222 0 59 21 139 80 139 104 0 24 -82 85 -140 106 -57 20 -174 18 -227
-3z m196 -26 c21 -21 26 -36 26 -76 0 -70 -35 -105 -105 -105 -41 0 -54 5 -77
28 -23 22 -28 36 -28 76 0 51 20 84 60 102 35 15 96 3 124 -25z m-178 -2 c-15
-19 -21 -41 -21 -74 0 -33 6 -55 21 -74 25 -32 20 -32 -34 -5 -62 32 -97 61
-97 80 0 16 44 51 105 83 43 22 49 20 26 -10z m232 5 c61 -32 97 -61 97 -79 0
-18 -36 -47 -97 -79 -54 -27 -59 -27 -34 5 15 19 21 41 21 74 0 33 -6 55 -21
74 -25 32 -20 32 34 5z"/>
<path d="M812 297 c-24 -25 -29 -71 -11 -83 9 -5 10 1 5 20 -9 38 32 79 70 70
19 -5 25 -4 20 5 -12 19 -61 12 -84 -12z"/>
<path d="M914 266 c9 -38 -32 -79 -70 -70 -19 5 -25 4 -20 -5 12 -19 61 -12
84 12 24 25 29 71 11 83 -9 5 -10 -1 -5 -20z"/>
<path d="M130 109 c0 -5 5 -7 10 -4 6 3 10 8 10 11 0 2 -4 4 -10 4 -5 0 -10
-5 -10 -11z"/>
<path d="M355 110 c3 -5 8 -10 11 -10 2 0 4 5 4 10 0 6 -5 10 -11 10 -5 0 -7
-4 -4 -10z"/>
<path d="M740 109 c0 -5 5 -7 10 -4 6 3 10 8 10 11 0 2 -4 4 -10 4 -5 0 -10
-5 -10 -11z"/>
<path d="M965 110 c3 -5 8 -10 11 -10 2 0 4 5 4 10 0 6 -5 10 -11 10 -5 0 -7
-4 -4 -10z"/>
<path d="M186 94 c-4 -9 -4 -19 -1 -22 2 -3 7 3 11 12 4 9 4 19 1 22 -2 3 -7
-3 -11 -12z"/>
<path d="M300 98 c0 -9 5 -20 10 -23 13 -8 13 5 0 25 -8 13 -10 13 -10 -2z"/>
<path d="M796 94 c-4 -9 -4 -19 -1 -22 2 -3 7 3 11 12 4 9 4 19 1 22 -2 3 -7
-3 -11 -12z"/>
<path d="M910 98 c0 -9 5 -20 10 -23 13 -8 13 5 0 25 -8 13 -10 13 -10 -2z"/>
<path d="M240 80 c0 -11 5 -20 10 -20 6 0 10 9 10 20 0 11 -4 20 -10 20 -5 0
-10 -9 -10 -20z"/>
<path d="M850 80 c0 -11 5 -20 10 -20 6 0 10 9 10 20 0 11 -4 20 -10 20 -5 0
-10 -9 -10 -20z"/>
</g>
</svg>
