<?xml version="1.0" standalone="no"?>
<!DOCTYPE svg PUBLIC "-//W3C//DTD SVG 20010904//EN"
 "http://www.w3.org/TR/2001/REC-SVG-20010904/DTD/svg10.dtd">
<svg version="1.0" xmlns="http://www.w3.org/2000/svg"
 width="111.000000pt" height="50.000000pt" viewBox="0 0 111.000000 50.000000"
 preserveAspectRatio="xMidYMid meet">

<g transform="translate(0.000000,50.000000) scale(0.100000,-0.100000)"
fill="#000000" stroke="none">
<path d="M115 342 c-33 -16 -73 -44 -89 -61 -39 -41 -27 -39 31 5 67 51 108
66 180 66 68 -1 147 -30 210 -78 38 -29 45 -60 12 -51 -14 4 -33 -3 -53 -17
-110 -82 -239 -80 -334 7 -12 11 -22 16 -22 10 0 -16 43 -51 90 -72 81 -37
192 -22 266 34 18 14 42 24 54 23 12 -2 27 5 33 14 16 25 -31 71 -113 111 -94
46 -182 49 -265 9z"/>
<path d="M759 346 c-99 -40 -161 -95 -142 -124 6 -9 21 -16 33 -14 12 1 36 -9
54 -23 74 -56 185 -71 266 -34 47 21 90 56 90 72 0 6 -10 1 -22 -10 -94 -87
-224 -90 -334 -7 -20 14 -39 21 -53 17 -34 -9 -26 21 14 51 66 50 141 78 209
78 74 -1 123 -19 183 -68 54 -44 68 -39 16 6 -91 81 -206 101 -314 56z"/>
<path d="M179 331 c-37 -12 -71 -31 -96 -54 -35 -31 -27 -42 8 -13 40 34 49
33 49 -5 0 -46 56 -99 105 -99 49 0 105 53 105 99 0 38 5 38 53 6 20 -14 37
-21 37 -16 0 15 -67 57 -119 76 -46 16 -100 18 -142 6z m16 -37 c-23 -45 1
-84 51 -84 23 0 38 7 49 23 13 19 13 22 1 25 -18 4 -28 29 -15 37 5 4 7 11 4
16 -8 12 2 11 26 -1 29 -16 26 -74 -6 -105 -53 -54 -145 -16 -145 59 0 23 6
39 18 45 27 16 32 13 17 -15z"/>
<path d="M778 321 c-53 -21 -108 -58 -108 -72 0 -5 17 2 37 16 48 32 53 32 53
-6 0 -46 56 -99 105 -99 49 0 105 53 105 99 0 38 4 38 47 5 18 -14 33 -21 33
-15 0 15 -65 62 -107 77 -52 18 -109 16 -165 -5z m47 -10 c-3 -5 -1 -12 4 -16
13 -8 3 -33 -15 -37 -12 -3 -12 -6 1 -25 11 -16 26 -23 49 -23 50 0 74 39 51
84 -15 29 -13 31 16 16 29 -16 26 -74 -6 -105 -53 -54 -145 -16 -145 59 0 23
6 39 18 45 22 13 35 14 27 2z"/>
</g>
</svg>
