<?xml version="1.0" standalone="no"?>
<!DOCTYPE svg PUBLIC "-//W3C//DTD SVG 20010904//EN"
 "http://www.w3.org/TR/2001/REC-SVG-20010904/DTD/svg10.dtd">
<svg version="1.0" xmlns="http://www.w3.org/2000/svg"
 width="512.000000pt" height="512.000000pt" viewBox="0 0 512.000000 512.000000"
 preserveAspectRatio="xMidYMid meet">

<g transform="translate(0.000000,512.000000) scale(0.100000,-0.100000)"
fill="#000000" stroke="none">
<path d="M2385 4844 c-298 -54 -482 -174 -682 -444 -172 -232 -254 -441 -294
-740 -22 -162 -17 -595 10 -950 32 -430 41 -695 30 -920 -13 -283 -11 -275
-89 -322 -139 -82 -218 -205 -315 -488 -81 -237 -155 -559 -155 -676 l0 -44
380 0 c209 0 790 -1 1290 -1 501 0 1081 1 1290 1 l380 0 0 43 c0 149 -102 551
-206 809 -81 202 -139 280 -264 356 -78 47 -74 32 -90 322 -12 230 -4 475 32
940 28 365 31 795 5 958 -36 228 -93 402 -178 544 -109 181 -240 339 -352 425
-210 162 -522 235 -792 187z m395 -46 c181 -38 324 -112 448 -231 75 -73 198
-231 264 -340 96 -159 164 -387 189 -626 16 -154 6 -625 -21 -951 -27 -341
-37 -771 -20 -963 6 -82 10 -150 8 -153 -3 -2 -22 3 -44 12 -21 10 -178 65
-349 124 l-310 107 -3 211 -2 210 56 54 c201 190 308 498 307 888 0 377 -101
689 -273 843 -84 76 -128 92 -251 92 -104 0 -107 -1 -191 -42 -165 -82 -278
-193 -354 -349 -51 -104 -91 -249 -100 -366 -10 -111 -20 -75 -29 96 -5 93
-11 136 -19 133 -18 -5 -101 -173 -134 -271 -55 -162 -67 -243 -67 -436 0
-205 12 -262 82 -410 39 -81 58 -107 129 -177 l84 -83 -2 -197 -3 -197 -282
-97 c-156 -53 -313 -109 -350 -123 -36 -14 -68 -24 -71 -22 -2 3 2 73 9 158
16 204 6 589 -26 1023 -27 365 -33 753 -15 905 37 301 113 509 265 723 221
312 427 438 785 480 60 8 191 -4 290 -25z m133 -781 c160 -73 273 -267 334
-572 25 -126 25 -452 0 -580 -52 -262 -153 -478 -279 -590 -172 -153 -278
-205 -419 -205 -112 0 -184 28 -336 131 -136 92 -227 227 -274 404 -29 107
-31 339 -6 468 21 104 64 239 104 322 l28 60 3 -50 c4 -83 22 -216 39 -283 12
-48 20 -62 32 -60 13 3 17 26 23 143 18 392 150 644 409 780 133 70 238 80
342 32z m-23 -2556 c-21 -114 -88 -202 -188 -249 -49 -23 -70 -27 -147 -27
-75 0 -97 4 -135 24 -69 37 -106 68 -139 119 -55 87 -61 132 -61 489 0 178 2
323 4 323 2 0 30 -16 62 -35 178 -108 392 -100 559 19 l50 36 3 -322 c1 -187
-2 -345 -8 -377z m-708 122 c4 -123 8 -158 27 -205 30 -76 107 -160 185 -201
57 -29 68 -32 161 -32 93 0 105 2 167 33 83 41 158 120 189 200 19 47 23 82
27 205 3 101 8 147 16 146 6 0 34 -8 61 -18 l50 -18 3 -67 c9 -210 -43 -362
-162 -474 -253 -236 -644 -166 -797 143 -42 86 -59 175 -59 321 l0 71 53 21
c28 11 57 21 63 21 8 1 13 -45 16 -146z m-162 -15 c0 -186 43 -309 143 -416
112 -120 236 -173 399 -173 160 0 283 54 393 173 104 113 145 228 145 416 0
61 2 112 4 112 12 0 452 -156 525 -186 169 -70 244 -139 316 -289 103 -213
227 -650 248 -868 l5 -47 -359 0 -359 0 0 220 c0 188 -2 220 -15 220 -17 0
-15 5 -55 -190 -16 -80 -34 -169 -40 -197 l-12 -53 -798 0 -798 0 -12 53 c-6
28 -24 117 -40 197 -40 195 -38 190 -55 190 -13 0 -15 -32 -15 -220 l0 -220
-360 0 -360 0 6 48 c29 251 144 653 248 867 73 149 147 217 311 286 73 30 510
186 528 188 4 1 7 -50 7 -111z m-321 -1156 c27 -117 27 -124 -1 -120 -22 3
-23 8 -26 113 -1 60 -1 107 2 104 3 -2 14 -46 25 -97z m1747 -109 c-3 -7 -15
-13 -27 -13 -25 0 -24 15 8 150 l18 75 3 -99 c1 -55 0 -106 -2 -113z"/>
</g>
</svg>
