<?xml version="1.0" standalone="no"?>
<!DOCTYPE svg PUBLIC "-//W3C//DTD SVG 20010904//EN"
 "http://www.w3.org/TR/2001/REC-SVG-20010904/DTD/svg10.dtd">
<svg version="1.0" xmlns="http://www.w3.org/2000/svg"
 width="512.000000pt" height="512.000000pt" viewBox="0 0 512.000000 512.000000"
 preserveAspectRatio="xMidYMid meet">

<g transform="translate(0.000000,512.000000) scale(0.100000,-0.100000)"
fill="#000000" stroke="none">
<path d="M2247 4844 c-359 -55 -566 -255 -622 -599 -28 -169 -14 -457 31 -680
8 -38 21 -126 29 -195 26 -230 66 -384 142 -535 60 -120 115 -196 212 -291
l81 -79 0 -77 0 -77 -52 -15 c-29 -8 -89 -24 -133 -36 -44 -11 -199 -59 -345
-106 -663 -215 -712 -234 -781 -312 -151 -172 -201 -412 -234 -1117 -8 -181
-18 -360 -21 -398 l-7 -67 397 0 c513 -1 2719 -1 3232 0 l397 0 -7 73 c-3 39
-13 218 -21 397 -8 179 -20 377 -26 440 -40 423 -136 658 -306 747 -32 17
-119 51 -193 76 -313 107 -700 230 -837 268 -82 22 -156 42 -165 45 -15 5 -18
18 -18 81 l0 75 78 77 c92 91 155 177 211 286 74 143 132 359 146 540 4 44 16
125 26 180 56 288 64 613 20 780 -79 299 -281 469 -617 520 -127 19 -493 19
-617 -1z m635 -38 c475 -85 656 -411 576 -1041 -6 -49 -13 -85 -14 -80 -2 6
-13 98 -24 205 -39 358 -71 440 -184 471 -51 15 -153 4 -436 -46 -240 -43
-246 -43 -540 11 -247 44 -367 50 -420 19 -76 -45 -105 -143 -140 -465 -11
-107 -22 -199 -24 -205 -8 -27 -29 228 -30 350 0 152 14 252 50 358 85 253
303 402 639 436 125 13 441 5 547 -13z m-812 -491 c52 -8 174 -28 270 -45 96
-16 195 -30 220 -30 25 0 124 14 220 30 288 50 393 64 435 56 48 -9 96 -57
113 -112 39 -134 87 -583 78 -749 -14 -288 -85 -534 -209 -728 -112 -174 -377
-379 -547 -423 -125 -32 -230 -3 -398 109 -340 227 -493 513 -534 992 -11 130
-10 158 16 395 55 520 72 546 336 505z m166 -1931 c248 -166 407 -165 659 5
l60 41 3 -68 c2 -37 7 -71 11 -75 4 -4 53 -20 107 -35 l99 -28 3 -49 c5 -71
-25 -234 -62 -345 -59 -177 -152 -311 -272 -393 -194 -132 -401 -127 -590 16
-174 132 -302 418 -307 689 l-2 82 97 27 c53 15 101 30 107 33 6 4 11 37 11
77 0 38 2 69 4 69 2 0 34 -21 72 -46z m-336 -232 c0 -134 60 -359 131 -491
199 -370 577 -471 874 -232 168 136 281 380 314 679 5 46 12 86 15 89 3 3 26
0 51 -7 l46 -13 -6 -46 c-75 -562 -389 -955 -765 -955 -376 0 -690 393 -765
955 -6 45 -5 46 27 56 18 6 43 11 56 12 20 1 22 -4 22 -47z m1693 -56 c115
-37 220 -71 233 -76 l23 -9 -43 -93 c-175 -376 -258 -932 -223 -1495 l8 -133
-1032 0 -1032 0 6 88 c16 229 18 341 8 512 -24 395 -92 716 -211 996 -27 65
-46 121 -42 125 11 10 434 149 453 149 13 0 18 -15 23 -65 10 -95 58 -276 101
-380 149 -360 409 -575 695 -575 286 0 546 215 695 575 43 102 90 281 101 376
7 68 11 82 22 75 4 -2 101 -34 215 -70z m-2232 -396 c53 -163 99 -377 126
-585 19 -151 25 -646 10 -758 l-8 -57 -53 0 -53 0 5 257 c5 262 -5 442 -34
643 -35 239 -95 473 -165 638 -57 137 -57 126 -2 143 l48 16 39 -76 c21 -42
60 -141 87 -221z m2617 264 c2 -1 -17 -53 -42 -116 -88 -222 -143 -443 -183
-734 -14 -101 -18 -202 -18 -472 l0 -342 -51 0 -51 0 -7 43 c-14 93 -18 466
-7 607 30 384 108 715 228 972 l35 76 47 -15 c25 -9 47 -17 49 -19z m-2840
-111 c98 -237 156 -479 194 -808 14 -121 18 -656 5 -717 l-8 -38 -371 0 -371
0 7 87 c3 49 13 232 21 408 26 539 58 741 147 920 60 119 117 169 246 216 42
15 80 28 83 28 4 1 25 -43 47 -96z m3093 11 c84 -58 151 -176 194 -338 46
-177 65 -368 85 -826 5 -129 13 -274 16 -323 l7 -87 -371 0 -370 0 -6 23 c-14
50 -18 448 -7 602 28 376 105 720 216 962 l34 73 80 -29 c44 -15 99 -41 122
-57z"/>
</g>
</svg>
