<?xml version="1.0" standalone="no"?>
<!DOCTYPE svg PUBLIC "-//W3C//DTD SVG 20010904//EN"
 "http://www.w3.org/TR/2001/REC-SVG-20010904/DTD/svg10.dtd">
<svg version="1.0" xmlns="http://www.w3.org/2000/svg"
 width="50.000000pt" height="50.000000pt" viewBox="0 0 50.000000 50.000000"
 preserveAspectRatio="xMidYMid meet">

<g transform="translate(0.000000,50.000000) scale(0.100000,-0.100000)"
fill="#000000" stroke="none">
<path d="M143 344 c-24 -14 -43 -30 -43 -35 0 -5 17 2 37 16 42 28 64 31 93
13 16 -10 24 -10 40 0 32 20 53 14 121 -34 l64 -45 -85 0 c-47 0 -101 0 -120
0 -192 0 -205 1 -187 11 34 21 16 27 -23 8 l-40 -20 63 -59 c70 -67 83 -71
214 -67 81 3 94 6 117 27 33 31 26 40 -10 12 -23 -18 -40 -21 -136 -21 l-109
0 -47 44 -46 44 74 5 c94 7 165 7 258 0 62 -4 71 -7 61 -19 -22 -26 -4 -23 31
6 l35 29 -26 10 c-15 5 -57 30 -94 55 -72 50 -89 54 -117 29 -17 -15 -19 -15
-36 0 -25 23 -40 21 -89 -9z"/>
</g>
</svg>
