<?xml version="1.0" standalone="no"?>
<!DOCTYPE svg PUBLIC "-//W3C//DTD SVG 20010904//EN"
 "http://www.w3.org/TR/2001/REC-SVG-20010904/DTD/svg10.dtd">
<svg version="1.0" xmlns="http://www.w3.org/2000/svg"
 width="50.000000pt" height="50.000000pt" viewBox="0 0 50.000000 50.000000"
 preserveAspectRatio="xMidYMid meet">

<g transform="translate(0.000000,50.000000) scale(0.100000,-0.100000)"
fill="#000000" stroke="none">
<path d="M162 393 c-9 -55 -23 -96 -52 -148 -64 -116 -49 -188 41 -191 24 0
56 -7 72 -14 22 -11 32 -11 55 0 15 7 47 14 71 14 90 3 105 75 41 191 -29 52
-43 93 -52 148 -14 91 -29 95 -16 5 11 -83 15 -95 49 -150 17 -25 34 -61 40
-80 17 -61 -22 -109 -78 -95 -13 3 -9 6 15 12 35 8 44 25 12 25 -10 0 -35 -13
-53 -30 -19 -16 -45 -30 -57 -30 -12 0 -38 14 -57 30 -33 29 -73 40 -73 20 0
-5 11 -10 24 -10 14 0 28 -5 31 -10 7 -12 -44 -14 -61 -2 -41 27 -37 97 11
161 30 42 42 77 53 159 13 90 -2 86 -16 -5z"/>
</g>
</svg>
